# xmcd
#
# Track frame offsets:
#	150
#	15576
#	28627
#	45374
#	62663
#	79833
#	95851
#	112716
#	130294
#	147135
#	164240
#
# Disc length: 2408 seconds
#
# Revision: 1
# Processed by: cddbd v1.5.2PL0 Copyright (c) Steve Scherf et al.
# Submitted via: EasyCDDAExtractor 15.3.0.1
#
DISCID=8d09660b
DTITLE=Daniela Romo - Sueños De Cabaret
DYEAR=2008
DGENRE=Latin
TTITLE0=Abuso
TTITLE1=Mia
TTITLE2=Intocable
TTITLE3=Tu De Que Vas
TTITLE4=Que Manera De Quererte
TTITLE5=Mi Credo
TTITLE6=No Podras
TTITLE7=Mujer Contra Mujer
TTITLE8=Color Esperanza
TTITLE9=Viveme
TTITLE10=Pensar En Ti
EXTD=
EXTT0=
EXTT1=
EXTT2=
EXTT3=
EXTT4=
EXTT5=
EXTT6=
EXTT7=
EXTT8=
EXTT9=
EXTT10=
PLAYORDER=
